Results
version=1
nRows=4
nColumns=205
inDegrees=yes
endheader
time	/jointset/ground_pelvis/pelvis_tilt/value	/jointset/ground_pelvis/pelvis_tilt/speed	/jointset/ground_pelvis/pelvis_list/value	/jointset/ground_pelvis/pelvis_list/speed	/jointset/ground_pelvis/pelvis_rotation/value	/jointset/ground_pelvis/pelvis_rotation/speed	/jointset/ground_pelvis/pelvis_tx/value	/jointset/ground_pelvis/pelvis_tx/speed	/jointset/ground_pelvis/pelvis_ty/value	/jointset/ground_pelvis/pelvis_ty/speed	/jointset/ground_pelvis/pelvis_tz/value	/jointset/ground_pelvis/pelvis_tz/speed	/jointset/hip_r/hip_flexion_r/value	/jointset/hip_r/hip_flexion_r/speed	/jointset/hip_r/hip_adduction_r/value	/jointset/hip_r/hip_adduction_r/speed	/jointset/hip_r/hip_rotation_r/value	/jointset/hip_r/hip_rotation_r/speed	/jointset/walker_knee_r/knee_angle_r/value	/jointset/walker_knee_r/knee_angle_r/speed	/jointset/patellofemoral_r/knee_angle_r_beta/value	/jointset/patellofemoral_r/knee_angle_r_beta/speed	/jointset/ankle_r/ankle_angle_r/value	/jointset/ankle_r/ankle_angle_r/speed	/jointset/subtalar_r/subtalar_angle_r/value	/jointset/subtalar_r/subtalar_angle_r/speed	/jointset/mtp_r/mtp_angle_r/value	/jointset/mtp_r/mtp_angle_r/speed	/jointset/hip_l/hip_flexion_l/value	/jointset/hip_l/hip_flexion_l/speed	/jointset/hip_l/hip_adduction_l/value	/jointset/hip_l/hip_adduction_l/speed	/jointset/hip_l/hip_rotation_l/value	/jointset/hip_l/hip_rotation_l/speed	/jointset/walker_knee_l/knee_angle_l/value	/jointset/walker_knee_l/knee_angle_l/speed	/jointset/patellofemoral_l/knee_angle_l_beta/value	/jointset/patellofemoral_l/knee_angle_l_beta/speed	/jointset/ankle_l/ankle_angle_l/value	/jointset/ankle_l/ankle_angle_l/speed	/jointset/subtalar_l/subtalar_angle_l/value	/jointset/subtalar_l/subtalar_angle_l/speed	/jointset/mtp_l/mtp_angle_l/value	/jointset/mtp_l/mtp_angle_l/speed	/jointset/back/lumbar_extension/value	/jointset/back/lumbar_extension/speed	/jointset/back/lumbar_bending/value	/jointset/back/lumbar_bending/speed	/jointset/back/lumbar_rotation/value	/jointset/back/lumbar_rotation/speed	/jointset/acromial_r/arm_flex_r/value	/jointset/acromial_r/arm_flex_r/speed	/jointset/acromial_r/arm_add_r/value	/jointset/acromial_r/arm_add_r/speed	/jointset/acromial_r/arm_rot_r/value	/jointset/acromial_r/arm_rot_r/speed	/jointset/elbow_r/elbow_flex_r/value	/jointset/elbow_r/elbow_flex_r/speed	/jointset/radioulnar_r/pro_sup_r/value	/jointset/radioulnar_r/pro_sup_r/speed	/jointset/radius_hand_r/wrist_flex_r/value	/jointset/radius_hand_r/wrist_flex_r/speed	/jointset/radius_hand_r/wrist_dev_r/value	/jointset/radius_hand_r/wrist_dev_r/speed	/jointset/acromial_l/arm_flex_l/value	/jointset/acromial_l/arm_flex_l/speed	/jointset/acromial_l/arm_add_l/value	/jointset/acromial_l/arm_add_l/speed	/jointset/acromial_l/arm_rot_l/value	/jointset/acromial_l/arm_rot_l/speed	/jointset/elbow_l/elbow_flex_l/value	/jointset/elbow_l/elbow_flex_l/speed	/jointset/radioulnar_l/pro_sup_l/value	/jointset/radioulnar_l/pro_sup_l/speed	/jointset/radius_hand_l/wrist_flex_l/value	/jointset/radius_hand_l/wrist_flex_l/speed	/jointset/radius_hand_l/wrist_dev_l/value	/jointset/radius_hand_l/wrist_dev_l/speed	/forceset/addbrev_r/activation	/forceset/addlong_r/activation	/forceset/addlong_r/fiber_length	/forceset/addmagDist_r/activation	/forceset/addmagIsch_r/activation	/forceset/addmagIsch_r/fiber_length	/forceset/addmagMid_r/activation	/forceset/addmagProx_r/activation	/forceset/bflh_r/activation	/forceset/bflh_r/fiber_length	/forceset/bfsh_r/activation	/forceset/edl_r/activation	/forceset/edl_r/fiber_length	/forceset/ehl_r/activation	/forceset/ehl_r/fiber_length	/forceset/fdl_r/activation	/forceset/fdl_r/fiber_length	/forceset/fhl_r/activation	/forceset/fhl_r/fiber_length	/forceset/gaslat_r/activation	/forceset/gaslat_r/fiber_length	/forceset/gasmed_r/activation	/forceset/gasmed_r/fiber_length	/forceset/glmax1_r/activation	/forceset/glmax2_r/activation	/forceset/glmax3_r/activation	/forceset/glmed1_r/activation	/forceset/glmed2_r/activation	/forceset/glmed3_r/activation	/forceset/glmin1_r/activation	/forceset/glmin2_r/activation	/forceset/glmin3_r/activation	/forceset/glmin3_r/fiber_length	/forceset/grac_r/activation	/forceset/iliacus_r/activation	/forceset/perbrev_r/activation	/forceset/perbrev_r/fiber_length	/forceset/perlong_r/activation	/forceset/perlong_r/fiber_length	/forceset/piri_r/activation	/forceset/piri_r/fiber_length	/forceset/psoas_r/activation	/forceset/recfem_r/activation	/forceset/recfem_r/fiber_length	/forceset/sart_r/activation	/forceset/semimem_r/activation	/forceset/semimem_r/fiber_length	/forceset/semiten_r/activation	/forceset/semiten_r/fiber_length	/forceset/soleus_r/activation	/forceset/soleus_r/fiber_length	/forceset/tfl_r/activation	/forceset/tfl_r/fiber_length	/forceset/tibant_r/activation	/forceset/tibant_r/fiber_length	/forceset/tibpost_r/activation	/forceset/tibpost_r/fiber_length	/forceset/vasint_r/activation	/forceset/vasint_r/fiber_length	/forceset/vaslat_r/activation	/forceset/vaslat_r/fiber_length	/forceset/vasmed_r/activation	/forceset/vasmed_r/fiber_length	/forceset/addbrev_l/activation	/forceset/addlong_l/activation	/forceset/addlong_l/fiber_length	/forceset/addmagDist_l/activation	/forceset/addmagIsch_l/activation	/forceset/addmagIsch_l/fiber_length	/forceset/addmagMid_l/activation	/forceset/addmagProx_l/activation	/forceset/bflh_l/activation	/forceset/bflh_l/fiber_length	/forceset/bfsh_l/activation	/forceset/edl_l/activation	/forceset/edl_l/fiber_length	/forceset/ehl_l/activation	/forceset/ehl_l/fiber_length	/forceset/fdl_l/activation	/forceset/fdl_l/fiber_length	/forceset/fhl_l/activation	/forceset/fhl_l/fiber_length	/forceset/gaslat_l/activation	/forceset/gaslat_l/fiber_length	/forceset/gasmed_l/activation	/forceset/gasmed_l/fiber_length	/forceset/glmax1_l/activation	/forceset/glmax2_l/activation	/forceset/glmax3_l/activation	/forceset/glmed1_l/activation	/forceset/glmed2_l/activation	/forceset/glmed3_l/activation	/forceset/glmin1_l/activation	/forceset/glmin2_l/activation	/forceset/glmin3_l/activation	/forceset/glmin3_l/fiber_length	/forceset/grac_l/activation	/forceset/iliacus_l/activation	/forceset/perbrev_l/activation	/forceset/perbrev_l/fiber_length	/forceset/perlong_l/activation	/forceset/perlong_l/fiber_length	/forceset/piri_l/activation	/forceset/piri_l/fiber_length	/forceset/psoas_l/activation	/forceset/recfem_l/activation	/forceset/recfem_l/fiber_length	/forceset/sart_l/activation	/forceset/semimem_l/activation	/forceset/semimem_l/fiber_length	/forceset/semiten_l/activation	/forceset/semiten_l/fiber_length	/forceset/soleus_l/activation	/forceset/soleus_l/fiber_length	/forceset/tfl_l/activation	/forceset/tfl_l/fiber_length	/forceset/tibant_l/activation	/forceset/tibant_l/fiber_length	/forceset/tibpost_l/activation	/forceset/tibpost_l/fiber_length	/forceset/vasint_l/activation	/forceset/vasint_l/fiber_length	/forceset/vaslat_l/activation	/forceset/vaslat_l/fiber_length	/forceset/vasmed_l/activation	/forceset/vasmed_l/fiber_length
      0.02686452	      0.69642370	     38.97641167	      0.00247487	      0.59131981	      0.03566993	      3.27716326	      0.00028605	      0.01500272	      0.93781727	     -0.19265493	     -0.00005396	     -0.00482503	      4.69049270	    -67.43598799	     -0.00448473	      0.02889856	     -0.73891772	    -44.78636145	     -1.46110724	    -74.58443133	     -0.02550113	     -1.30174390	    -10.09141405	   -462.74682190	     -0.00000000	     -0.00000000	      0.00000000	      0.00000000	     -1.16058262	    -61.84789891	      0.00668985	      1.76758250	     -0.63190955	    -35.69667724	     -1.32399129	    -65.11751426	     -0.02310801	     -1.13651502	    -10.06717866	   -460.50447981	      0.00000000	      0.00000000	      0.00000000	      0.00000000	     -0.77766278	    -43.64104327	     -0.00336207	     -0.71843497	     -0.03595689	     -3.32365742	      0.12006075	      6.94570390	      0.00554526	      0.48994957	     -0.00275245	     -0.06850485	     -0.03708076	     -2.74272560	      0.01220441	      0.43226343	     -0.00000000	     -0.00000000	     -0.00000000	     -0.00000000	      0.11973333	      6.89836496	      0.00178936	     -0.05463089	     -0.00343493	     -0.16724906	     -0.03672891	     -2.69190211	      0.01308394	      0.55990530	      0.00000000	      0.00000000	     -0.00000000	     -0.00000000	      0.00654119	      0.00654119	      0.10902245	      0.00654119	      0.00654119	      0.12861632	      0.00654119	      0.00654119	      0.00654119	      0.09445528	      0.00654119	      0.00654119	      0.07466808	      0.00654119	      0.08405001	      0.00654119	      0.04427386	      0.00654119	      0.04928953	      0.00654119	      0.06424011	      0.00654119	      0.05168970	      0.00654119	      0.00654119	      0.00654119	      0.00654119	      0.00654119	      0.00654119	      0.00654119	      0.00654119	      0.00654119	      0.03881349	      0.00654119	      0.00654119	      0.00654119	      0.04756956	      0.00654119	      0.05284716	      0.00654119	      0.02397348	      0.00654119	      0.00654119	      0.06074444	      0.00654119	      0.00654119	      0.06983719	      0.00654119	      0.21586015	      0.00654119	      0.04379319	      0.00654119	      0.09433358	      0.00654119	      0.07298273	      0.00654119	      0.03794585	      0.00654119	      0.07861816	      0.00654119	      0.07777637	      0.00654119	      0.07943946	      0.00654119	      0.00654119	      0.11371174	      0.00654119	      0.00654119	      0.12452078	      0.00654119	      0.00654119	      0.00654119	      0.08936183	      0.00654119	      0.00654119	      0.07465556	      0.00654119	      0.08403632	      0.00654119	      0.04427663	      0.00654119	      0.04929419	      0.00654119	      0.06423381	      0.00654119	      0.05169374	      0.00654119	      0.00654119	      0.00654119	      0.00654119	      0.00654119	      0.00654119	      0.00654119	      0.00654119	      0.00654119	      0.03762288	      0.00654119	      0.00654119	      0.00654119	      0.04757194	      0.00654119	      0.05285010	      0.00654119	      0.02294316	      0.00654119	      0.00654119	      0.06433259	      0.00654119	      0.00654119	      0.06539103	      0.00654119	      0.21090489	      0.00654119	      0.04379451	      0.00654119	      0.09722989	      0.00654119	      0.07296735	      0.00654119	      0.03794893	      0.00654119	      0.07871953	      0.00654119	      0.07786037	      0.00654119	      0.07952496
      0.02806313	      0.74342947	     39.44927204	      0.00322444	      0.65916752	      0.03970804	      3.46011783	      0.00030410	      0.01509699	      0.93757948	     -0.20412676	     -0.00005990	     -0.00508642	      4.60927665	    -68.06608846	     -0.00442665	      0.06887710	     -0.79318979	    -45.76464392	     -1.55053168	    -74.60674608	     -0.02706188	     -1.30213336	    -10.64235254	   -456.40832389	     -0.00000000	     -0.00000000	      0.00000000	      0.00000000	     -1.23496952	    -62.26007006	      0.00892725	      1.96563253	     -0.67501805	    -36.22876411	     -1.40185445	    -64.78410506	     -0.02446698	     -1.13069594	    -10.61535629	   -454.03879013	      0.00000000	      0.00000000	      0.00000000	      0.00000000	     -0.83029960	    -44.17963407	     -0.00426912	     -0.79468650	     -0.04005389	     -3.51189923	      0.12844906	      7.04959250	      0.00614931	      0.51786075	     -0.00282897	     -0.05915650	     -0.04041089	     -2.81342812	      0.01273009	      0.44481998	     -0.00000000	     -0.00000000	     -0.00000000	     -0.00000000	      0.12806241	      6.99812536	      0.00171179	     -0.07477695	     -0.00363501	     -0.16655215	     -0.03999546	     -2.75819134	      0.01376940	      0.58377365	      0.00000000	     -0.00000000	     -0.00000000	     -0.00000000	      0.00638687	      0.00638687	      0.10909261	      0.00638687	      0.00638687	      0.12856104	      0.00638687	      0.00638687	      0.00638687	      0.09442410	      0.00638687	      0.00638687	      0.07496793	      0.00638687	      0.08437375	      0.00638687	      0.04418664	      0.00638687	      0.04914573	      0.00638687	      0.06388505	      0.00638687	      0.05149239	      0.00638687	      0.00638687	      0.00638687	      0.00638687	      0.00638687	      0.00638687	      0.00638687	      0.00638687	      0.00638687	      0.03878786	      0.00638687	      0.00638687	      0.00638687	      0.04750940	      0.00638687	      0.05276711	      0.00638687	      0.02393699	      0.00638687	      0.00638687	      0.06072108	      0.00638687	      0.00638687	      0.06982409	      0.00638687	      0.21584608	      0.00638687	      0.04362725	      0.00638687	      0.09435372	      0.00638687	      0.07334421	      0.00638687	      0.03785173	      0.00638687	      0.07854688	      0.00638687	      0.07771709	      0.00638687	      0.07938001	      0.00638687	      0.00638687	      0.11376901	      0.00638687	      0.00638687	      0.12447464	      0.00638687	      0.00638687	      0.00638687	      0.08933625	      0.00638687	      0.00638687	      0.07495397	      0.00638687	      0.08435854	      0.00638687	      0.04418979	      0.00638687	      0.04915101	      0.00638687	      0.06387845	      0.00638687	      0.05149632	      0.00638687	      0.00638687	      0.00638687	      0.00638687	      0.00638687	      0.00638687	      0.00638687	      0.00638687	      0.00638687	      0.03759784	      0.00638687	      0.00638687	      0.00638687	      0.04751208	      0.00638687	      0.05277041	      0.00638687	      0.02291150	      0.00638687	      0.00638687	      0.06431059	      0.00638687	      0.00638687	      0.06538051	      0.00638687	      0.21089432	      0.00638687	      0.04362856	      0.00638687	      0.09724130	      0.00638687	      0.07332707	      0.00638687	      0.03785525	      0.00638687	      0.07865717	      0.00638687	      0.07780847	      0.00638687	      0.07947297
      0.02926174	      0.79096868	     39.86443922	      0.00405696	      0.73094101	      0.04396385	      3.64084135	      0.00032224	      0.01516776	      0.93732789	     -0.21570711	     -0.00006616	     -0.00534515	      4.52736465	    -68.59449950	     -0.00432052	      0.10761465	     -0.84860813	    -46.69898459	     -1.63989938	    -74.48816598	     -0.02862164	     -1.30006375	    -11.18517043	   -449.18888563	     -0.00000000	     -0.00000000	      0.00000000	      0.00000000	     -1.30979363	    -62.57413140	      0.01140470	      2.16960684	     -0.71874417	    -36.72679996	     -1.47923915	    -64.31702741	     -0.02581759	     -1.12254389	    -11.15526314	   -446.70477516	      0.00000000	      0.00000000	      0.00000000	      0.00000000	     -0.88354465	    -44.65361041	     -0.00526906	     -0.87480618	     -0.04437509	     -3.69825133	      0.13695601	      7.14329810	      0.00678689	      0.54612494	     -0.00289411	     -0.04945632	     -0.04382366	     -2.88046061	      0.01327040	      0.45658054	     -0.00000000	     -0.00000000	     -0.00000000	     -0.00000000	      0.13650515	      7.08759638	      0.00160964	     -0.09589980	     -0.00383416	     -0.16573423	     -0.04333933	     -2.82069994	      0.01448319	      0.60716759	      0.00000000	      0.00000000	     -0.00000000	     -0.00000000	      0.00623255	      0.00623255	      0.10916355	      0.00623255	      0.00623255	      0.12850535	      0.00623255	      0.00623255	      0.00623255	      0.09439215	      0.00623255	      0.00623255	      0.07526281	      0.00623255	      0.08469141	      0.00623255	      0.04409920	      0.00623255	      0.04900232	      0.00623255	      0.06353392	      0.00623255	      0.05129878	      0.00623255	      0.00623255	      0.00623255	      0.00623255	      0.00623255	      0.00623255	      0.00623255	      0.00623255	      0.00623255	      0.03876177	      0.00623255	      0.00623255	      0.00623255	      0.04744971	      0.00623255	      0.05268778	      0.00623255	      0.02389977	      0.00623255	      0.00623255	      0.06069789	      0.00623255	      0.00623255	      0.06981042	      0.00623255	      0.21583138	      0.00623255	      0.04346130	      0.00623255	      0.09437426	      0.00623255	      0.07370099	      0.00623255	      0.03775674	      0.00623255	      0.07847552	      0.00623255	      0.07765775	      0.00623255	      0.07932054	      0.00623255	      0.00623255	      0.11383477	      0.00623255	      0.00623255	      0.12442816	      0.00623255	      0.00623255	      0.00623255	      0.08930995	      0.00623255	      0.00623255	      0.07524736	      0.00623255	      0.08467461	      0.00623255	      0.04410277	      0.00623255	      0.04900828	      0.00623255	      0.06352794	      0.00623255	      0.05130267	      0.00623255	      0.00623255	      0.00623255	      0.00623255	      0.00623255	      0.00623255	      0.00623255	      0.00623255	      0.00623255	      0.03757260	      0.00623255	      0.00623255	      0.00623255	      0.04745270	      0.00623255	      0.05269147	      0.00623255	      0.02287945	      0.00623255	      0.00623255	      0.06428898	      0.00623255	      0.00623255	      0.06536939	      0.00623255	      0.21088304	      0.00623255	      0.04346262	      0.00623255	      0.09725311	      0.00623255	      0.07368205	      0.00623255	      0.03776073	      0.00623255	      0.07859507	      0.00623255	      0.07775680	      0.00623255	      0.07942122
      0.03046035	      0.83897538	     40.23248802	      0.00497626	      0.80261140	      0.04843412	      3.81736933	      0.00034045	      0.01521959	      0.93706235	     -0.22737878	     -0.00007271	     -0.00559749	      4.44487382	    -69.03631718	     -0.00416686	      0.14982382	     -0.90512021	    -47.58959956	     -1.72904422	    -74.23708708	     -0.03017751	     -1.29568160	    -11.71883173	   -441.14107889	     -0.00000000	     -0.00000000	      0.00000000	      0.00000000	     -1.38494281	    -62.80765051	      0.01412809	      2.37427361	     -0.76304872	    -37.19494534	     -1.55598951	    -63.72914282	     -0.02715714	     -1.11228337	    -11.68588336	   -438.55164746	      0.00000000	      0.00000000	      0.00000000	      0.00000000	     -0.93732405	    -45.07480110	     -0.00636552	     -0.95419271	     -0.04891764	     -3.88058401	      0.14556992	      7.22862423	      0.00745826	      0.57396624	     -0.00294747	     -0.03956936	     -0.04731488	     -2.94456312	      0.01382447	      0.46790700	     -0.00000000	     -0.00000000	     -0.00000000	     -0.00000000	      0.14504978	      7.16872622	      0.00148194	     -0.11710153	     -0.00403219	     -0.16465592	     -0.04675622	     -2.88032250	      0.01522471	      0.63005573	      0.00000000	      0.00000000	     -0.00000000	     -0.00000000	      0.00607823	      0.00607823	      0.10923479	      0.00607823	      0.00607823	      0.12844932	      0.00607823	      0.00607823	      0.00607823	      0.09435947	      0.00607823	      0.00607823	      0.07555214	      0.00607823	      0.08500242	      0.00607823	      0.04401178	      0.00607823	      0.04885965	      0.00607823	      0.06318894	      0.00607823	      0.05110628	      0.00607823	      0.00607823	      0.00607823	      0.00607823	      0.00607823	      0.00607823	      0.00607823	      0.00607823	      0.00607823	      0.03873524	      0.00607823	      0.00607823	      0.00607823	      0.04739061	      0.00607823	      0.05260934	      0.00607823	      0.02386185	      0.00607823	      0.00607823	      0.06067495	      0.00607823	      0.00607823	      0.06979618	      0.00607823	      0.21581604	      0.00607823	      0.04329535	      0.00607823	      0.09439518	      0.00607823	      0.07404957	      0.00607823	      0.03766139	      0.00607823	      0.07840420	      0.00607823	      0.07759846	      0.00607823	      0.07926115	      0.00607823	      0.00607823	      0.11389098	      0.00607823	      0.00607823	      0.12438140	      0.00607823	      0.00607823	      0.00607823	      0.08928295	      0.00607823	      0.00607823	      0.07553513	      0.00607823	      0.08498396	      0.00607823	      0.04401580	      0.00607823	      0.04886633	      0.00607823	      0.06318362	      0.00607823	      0.05111016	      0.00607823	      0.00607823	      0.00607823	      0.00607823	      0.00607823	      0.00607823	      0.00607823	      0.00607823	      0.00607823	      0.03754721	      0.00607823	      0.00607823	      0.00607823	      0.04739393	      0.00607823	      0.05261343	      0.00607823	      0.02284705	      0.00607823	      0.00607823	      0.06426782	      0.00607823	      0.00607823	      0.06535767	      0.00607823	      0.21087104	      0.00607823	      0.04329667	      0.00607823	      0.09726532	      0.00607823	      0.07402872	      0.00607823	      0.03766587	      0.00607823	      0.07853335	      0.00607823	      0.07770546	      0.00607823	      0.07936983
